<svg width="120" height="120" viewBox="0 0 120 120" fill="none" xmlns="http://www.w3.org/2000/svg">
<circle cx="60" cy="60" r="60" fill="#FFF1C1"/>
<path d="M45.52 95.254C45.52 96.71 45.114 97.8813 44.302 98.768C43.4993 99.6547 42.4213 100.098 41.068 100.098C39.7147 100.098 38.632 99.6547 37.82 98.768C37.008 97.8813 36.602 96.71 36.602 95.254C36.602 93.7887 37.0033 92.6127 37.806 91.726C38.618 90.8393 39.7007 90.396 41.054 90.396C42.426 90.396 43.5133 90.8393 44.316 91.726C45.1187 92.6033 45.52 93.7793 45.52 95.254ZM38.492 95.254C38.492 96.2433 38.7253 97.0273 39.192 97.606C39.6587 98.1847 40.284 98.474 41.068 98.474C41.8613 98.474 42.4867 98.1893 42.944 97.62C43.4013 97.0413 43.63 96.2527 43.63 95.254C43.63 94.2553 43.4013 93.4667 42.944 92.888C42.4867 92.3093 41.8567 92.02 41.054 92.02C40.2607 92.02 39.6353 92.3093 39.178 92.888C38.7207 93.4667 38.492 94.2553 38.492 95.254ZM50.0092 92.02H48.8612V95.1H50.0372C50.5785 95.1 50.9845 94.9647 51.2552 94.694C51.5259 94.414 51.6612 94.0267 51.6612 93.532C51.6612 93.0467 51.5165 92.6733 51.2272 92.412C50.9472 92.1507 50.5412 92.02 50.0092 92.02ZM48.8612 100H47.0972V90.564H50.0092C51.0825 90.564 51.9225 90.8347 52.5292 91.376C53.1452 91.9173 53.4532 92.6407 53.4532 93.546C53.4439 94.218 53.2805 94.7873 52.9632 95.254C52.6459 95.7113 52.2119 96.052 51.6612 96.276L54.0832 100H51.9692L49.8272 96.556H48.8612V100ZM58.4213 100H55.3413V90.564H58.4213C59.8307 90.564 60.9833 90.998 61.8793 91.866C62.7753 92.734 63.2233 93.8307 63.2233 95.156C63.2233 96.6027 62.7893 97.774 61.9213 98.67C61.0533 99.5567 59.8867 100 58.4213 100ZM58.3653 92.048H57.1473V98.53H58.3933C59.3827 98.53 60.134 98.2267 60.6473 97.62C61.1607 97.004 61.4173 96.1827 61.4173 95.156C61.4173 94.2507 61.142 93.5087 60.5913 92.93C60.05 92.342 59.308 92.048 58.3653 92.048ZM70.4166 100H64.7886V90.564H70.3606V92.006H66.5666V94.568H69.9406V95.996H66.5666V98.558H70.4166V100ZM75.0971 92.02H73.9491V95.1H75.1251C75.6664 95.1 76.0724 94.9647 76.3431 94.694C76.6137 94.414 76.7491 94.0267 76.7491 93.532C76.7491 93.0467 76.6044 92.6733 76.3151 92.412C76.0351 92.1507 75.6291 92.02 75.0971 92.02ZM73.9491 100H72.1851V90.564H75.0971C76.1704 90.564 77.0104 90.8347 77.6171 91.376C78.2331 91.9173 78.5411 92.6407 78.5411 93.546C78.5317 94.218 78.3684 94.7873 78.0511 95.254C77.7337 95.7113 77.2997 96.052 76.7491 96.276L79.1711 100H77.0571L74.9151 96.556H73.9491V100Z" fill="#D92511"/>
<path d="M30.2642 69.4545H34.0568L38.0625 79.2273H38.233L42.2386 69.4545H46.0312V84H43.0483V74.5327H42.9276L39.1634 83.929H37.1321L33.3679 74.4972H33.2472V84H30.2642V69.4545ZM48.565 84V69.4545H58.3661V71.9901H51.6403V75.456H57.8619V77.9915H51.6403V81.4645H58.3945V84H48.565ZM72.9773 69.4545V84H70.321L63.9929 74.8452H63.8864V84H60.8111V69.4545H63.5099L69.7884 78.6023H69.9162V69.4545H72.9773ZM84.5025 69.4545H87.5778V78.9006C87.5778 79.9612 87.3245 80.8892 86.8178 81.6847C86.3159 82.4801 85.6128 83.1004 84.7085 83.5455C83.8041 83.9858 82.7506 84.206 81.5479 84.206C80.3406 84.206 79.2847 83.9858 78.3803 83.5455C77.476 83.1004 76.7728 82.4801 76.271 81.6847C75.7691 80.8892 75.5181 79.9612 75.5181 78.9006V69.4545H78.5934V78.6378C78.5934 79.1918 78.7141 79.6842 78.9556 80.1151C79.2018 80.5459 79.5475 80.8845 79.9925 81.1307C80.4376 81.3769 80.9561 81.5 81.5479 81.5C82.1445 81.5 82.663 81.3769 83.1033 81.1307C83.5484 80.8845 83.8917 80.5459 84.1332 80.1151C84.3794 79.6842 84.5025 79.1918 84.5025 78.6378V69.4545Z" fill="black"/>
<path d="M75.3606 23.6405C75.8101 24.0919 76.2257 24.5642 76.6271 25.0439L79.3659 19.6332C68.6711 8.93739 51.3282 8.93739 40.6343 19.6332L43.3732 25.0439C43.7746 24.5642 44.1901 24.0919 44.6397 23.6405C53.1246 15.1566 66.8757 15.1566 75.3606 23.6405Z" fill="#F4AA41"/>
<path d="M76.6278 25.0439C76.2259 24.558 75.8031 24.0897 75.3604 23.6405C66.8755 15.1566 53.1244 15.1566 44.6395 23.6405C44.19 24.0919 43.7744 24.5642 43.3721 25.0439L60 57.8889L76.6278 25.0439Z" fill="#FCEA2B"/>
<path d="M55.2779 32.3889C57.8859 32.3889 60.0001 30.2747 60.0001 27.6667C60.0001 25.0587 57.8859 22.9444 55.2779 22.9444C52.6699 22.9444 50.5557 25.0587 50.5557 27.6667C50.5557 30.2747 52.6699 32.3889 55.2779 32.3889Z" fill="#EA5A47"/>
<path d="M67.5555 30.5C69.1203 30.5 70.3888 29.2315 70.3888 27.6667C70.3888 26.1019 69.1203 24.8333 67.5555 24.8333C65.9907 24.8333 64.7222 26.1019 64.7222 27.6667C64.7222 29.2315 65.9907 30.5 67.5555 30.5Z" fill="#EA5A47"/>
<path d="M60.9447 41.8333C62.5095 41.8333 63.778 40.5648 63.778 39C63.778 37.4352 62.5095 36.1667 60.9447 36.1667C59.3799 36.1667 58.1113 37.4352 58.1113 39C58.1113 40.5648 59.3799 41.8333 60.9447 41.8333Z" fill="#EA5A47"/>
<path d="M75.3606 23.6405C75.8101 24.0919 76.2257 24.5642 76.6271 25.0439L79.3659 19.6332C68.6711 8.93739 51.3282 8.93739 40.6343 19.6332L43.3732 25.0439C43.7746 24.5642 44.1901 24.0919 44.6397 23.6405C53.1246 15.1566 66.8757 15.1566 75.3606 23.6405Z" stroke="black" stroke-width="0.5" stroke-miterlimit="10" stroke-linecap="round" stroke-linejoin="round"/>
<path d="M76.6278 25.0439C76.2259 24.558 75.8031 24.0897 75.3604 23.6405C66.8755 15.1566 53.1244 15.1566 44.6395 23.6405C44.19 24.0919 43.7744 24.5642 43.3721 25.0439L60 57.8889L76.6278 25.0439Z" stroke="black" stroke-width="0.5" stroke-miterlimit="10" stroke-linecap="round" stroke-linejoin="round"/>
<path d="M55.2779 32.3889C57.8859 32.3889 60.0001 30.2747 60.0001 27.6667C60.0001 25.0587 57.8859 22.9445 55.2779 22.9445C52.6699 22.9445 50.5557 25.0587 50.5557 27.6667C50.5557 30.2747 52.6699 32.3889 55.2779 32.3889Z" stroke="black" stroke-width="0.5" stroke-miterlimit="10" stroke-linecap="round" stroke-linejoin="round"/>
<path d="M67.5555 30.5C69.1203 30.5 70.3888 29.2315 70.3888 27.6667C70.3888 26.1019 69.1203 24.8333 67.5555 24.8333C65.9907 24.8333 64.7222 26.1019 64.7222 27.6667C64.7222 29.2315 65.9907 30.5 67.5555 30.5Z" stroke="black" stroke-width="0.5" stroke-miterlimit="10" stroke-linecap="round" stroke-linejoin="round"/>
<path d="M60.9447 41.8333C62.5095 41.8333 63.778 40.5648 63.778 39C63.778 37.4352 62.5095 36.1667 60.9447 36.1667C59.3799 36.1667 58.1113 37.4352 58.1113 39C58.1113 40.5648 59.3799 41.8333 60.9447 41.8333Z" stroke="black" stroke-width="0.5" stroke-miterlimit="10" stroke-linecap="round" stroke-linejoin="round"/>
</svg>
